{"title":"Anal Teenage (1993) ~ Hot Classic ~","uid":7322496,"size":744827380,"categoryP":"porn","categoryS":"movies","magnet":"?xt=urn:btih:4ac70b154126c7f45e494079ea9a01c2062a32a3&amp;dn=Anal+Teenage+%281993%29+%7E+Hot+Classic+%7E&amp;tr=udp%3A%2F%2Ftracker.openbittorrent.com%3A80&amp;tr=udp%3A%2F%2Fopen.demonii.com%3A1337&amp;tr=udp%3A%2F%2Ftracker.coppersurfer.tk%3A6969&amp;tr=udp%3A%2F%2Fexodus.desync.com%3A6969","seeders":0,"leechers":1,"uploader":"soulless123","files":1,"time":1338659777,"description":"Screen\n &lt;a href=&quot;\nhttp://bayimg.com/mAofNaadp&quot; rel=&quot;nofollow&quot; target=&quot;_NEW&quot;&gt;\nhttp://bayimg.com/mAofNaadp&lt;/a&gt;\n\nSeeding Time 24/7\n\nDon't Forget To Say Thanks If You Like My Post\n\n\n\n-=Media Info=-\n\nFormat : AVI\nFormat/Info : Audio Video Interleave\nFile size : 710 MiB\nDuration : 1h 15mn\nOverall bit rate : 1 323 Kbps\nWriting library : VirtualDub build 32817/release\n\nVideo\nID : 0\nFormat : MPEG-4 Visual\nFormat profile : Advanced Simple@L5\nFormat settings, BVOP : 2\nFormat settings, QPel : No\nFormat settings, GMC : No warppoints\nFormat settings, Matrix : Default (H.263)\nMuxing mode : Packed bitstream\nCodec ID : XVID\nCodec ID/Hint : XviD\nDuration : 1h 15mn\nBit rate : 1 185 Kbps\nWidth : 706 pixels\nHeight : 562 pixels\nDisplay aspect ratio : 5:4\nFrame rate : 25.000 fps\nColor space : YUV\nChroma subsampling : 40\nBit depth : 8 bits\nScan type : Progressive\nCompression mode : Lossy\nBits/(Pixel*Frame) : 0.119\nStream size : 636 MiB (90%)\nWriting library : XviD 1.2.1 (UTC 2008-12-04)\n\nAudio\nID : 1\nFormat : MPEG Audio\nFormat version : Version 1\nFormat profile : Layer 3\nCodec ID : 55\nCodec ID/Hint : MP3\nDuration : 1h 15mn\nBit rate mode : Constant\nBit rate : 128 Kbps\nChannel(s) : 1 channel\nSampling rate : 44.1 KHz\nCompression mode : Lossy\nStream size : 68.6 MiB (10%)\nAlignment : Split accross interleaves\nInterleave, duration : 40 ms (1.00 video frame)\nInterleave, preload duration : 501 ms","torrent":{"xt":"urn:btih:4ac70b154126c7f45e494079ea9a01c2062a32a3","amp;dn":"Anal+Teenage+%281993%29+%7E+Hot+Classic+%7E","amp;tr":["udp%3A%2F%2Ftracker.openbittorrent.com%3A80","udp%3A%2F%2Fopen.demonii.com%3A1337","udp%3A%2F%2Ftracker.coppersurfer.tk%3A6969","udp%3A%2F%2Fexodus.desync.com%3A6969"],"infoHash":"4ac70b154126c7f45e494079ea9a01c2062a32a3","infoHashBuffer":{"type":"Buffer","data":[74,199,11,21,65,38,199,244,94,73,64,121,234,154,1,194,6,42,50,163]},"announce":[],"urlList":[]}}